<?xml version="1.0" encoding="utf-8"?>
<!-- Generator: Adobe Illustrator 23.0.0, SVG Export Plug-In . SVG Version: 6.00 Build 0)  -->
<svg version="1.1" id="Layer_14" xmlns="http://www.w3.org/2000/svg" xmlns:xlink="http://www.w3.org/1999/xlink" x="0px" y="0px" viewBox="0 0 800 600" style="enable-background:new 0 0 800 600;" xml:space="preserve">

<g>
	<rect width="800" height="600" style="fill:#FFFFFF;"/>
	
		<radialGradient id="SVGID_1_" cx="818.5207" cy="-1.9686" r="264.3687" gradientTransform="matrix(1.339 0 0 1.0196 -696.0322 356.5072)" gradientUnits="userSpaceOnUse">
		<stop offset="0" style="stop-color:#F2F2F2"/>
		<stop offset="0.672" style="stop-color:#F4F4F4"/>
		<stop offset="0.9213" style="stop-color:#FBFBFB"/>
		<stop offset="1" style="stop-color:#FFFFFF"/>
	</radialGradient>
	<rect y="82" width="800" height="495" style="fill:url(#SVGID_1_);"/>
	<rect y="433.1" width="800" height="166.9" style="fill:#FFFFFF;"/>
</g>
<g>
	<rect x="257.1" y="126.1" width="291.8" height="304.7" style="fill:#FAFAFA;"/>
	<g>
		<polygon points="561.4,430.8 544.4,430.8 544.4,130.6 261.6,130.6 261.6,430.8 244.6,430.8 244.6,113.6 561.4,113.6 
					" style="fill:#E5E5E5;"/>
	</g>
</g>
<g>
	<rect x="607.9" y="169.3" width="127.9" height="204.4" style="fill:#FAFAFA;"/>
	<g>
		<path d="M748.3,386.1H596.4V156.8h151.9V386.1z M612.4,369.1h118.9V173.8H612.4V369.1z" style="fill:#E5E5E5;"/>
	</g>
</g>
<g>
	<rect x="70" y="169.3" width="127.9" height="204.4" style="fill:#FAFAFA;"/>
	<g>
		<path d="M210.3,386.1H58.5V156.8h151.9V386.1z M74.5,369.1h118.9V173.8H74.5V369.1z" style="fill:#E5E5E5;"/>
	</g>
</g>
<radialGradient id="SVGID_2_" cx="401.5001" cy="129.2149" r="333.4584" gradientTransform="matrix(1 0 0 -1.1328 0 585.2738)" gradientUnits="userSpaceOnUse">
	<stop offset="0" style="stop-color:#FFFFFF;stop-opacity:0"/>
	<stop offset="1" style="stop-color:#FFFFFF"/>
</radialGradient>
<rect x="3" y="1" width="800" height="466" style="fill:url(#SVGID_2_);"/>
<g>
	
		<linearGradient id="SVGID_3_" gradientUnits="userSpaceOnUse" x1="402.5" y1="128.1633" x2="402.5" y2="148.1633" gradientTransform="matrix(1 0 0 -1 0 604)">
		<stop offset="0" style="stop-color:#FFFFFF"/>
		<stop offset="1" style="stop-color:#E0E0E0"/>
	</linearGradient>
	<path d="M653.5,455.8L653.5,455.8c0,11-9,20-20,20h-462c-11.1,0-20-9-20-20l0,0H653.5z" style="opacity:0.2;fill:url(#SVGID_3_);enable-background:new    ;"/>
</g>
<g>
	<path d="M374.7,458.6c-2.5,3.2-4.1,4.9-4.5,7.3c0,0.2,0,0.4-0.1,0.6c-0.1,2.7,2.3,4.7,5,4.6c3.1-0.2,7.9-1.3,9.9-6.6
		c1.8-4.6,4.3-4.2,4.9-7.8c0.3-2.2-0.3-6.1-0.3-6.1s-1.4,1-6.1,0.3c-3.6-0.6-3.4-1.7-3.4-1.7S380.2,451.6,374.7,458.6z" style="fill:#704020;"/>
	<path d="M379,319.1l24.7-0.2v26.5l0,0c0,0-6.1,41.2-8.4,48.1c0.1,21.6-3.7,59.2-3.7,59.2H376c0,0-1.2-42,1.2-60.1
		C377.2,392.6,372.6,332.6,379,319.1z" style="fill:#CCB491;"/>
	<path d="M385.2,334.8l-9.1-2.3l1.8-6.8c0.2-0.9,1.1-1.4,2-1.2l5.9,1.5c0.9,0.2,1.4,1.1,1.2,2L385.2,334.8z" style="fill:#704020;"/>
	<path d="M432,458.8c2.5,3.3,4,5,4.3,7.4c0,0.2,0,0.4,0,0.6c0,2.7-2.4,4.7-5.1,4.5c-3.1-0.2-7.8-1.5-9.8-6.8
		c-1.7-4.7-4.2-4.3-4.7-7.9c-0.3-2.2,0.4-6.1,0.4-6.1s1.4,1,6.1,0.4c3.6-0.5,3.4-1.7,3.4-1.7S426.6,451.6,432,458.8z" style="fill:#704020;"/>
	<path d="M467.8,264c0,0,4.5,0.7,6.7-5.5c1.2-3.4,6.1-14.8,6.2-19.1c0-1.8-2.2-2.6-3.3-1.2l-15.8,22.3" style="fill:#E2B698;"/>
	<path d="M419.3,201.9c0,0-10.2-6.3-15.8-6.3c-6.4,0-15.6,6.1-15.6,6.1c0,12.5-2.4,67.4-2.4,67.4s4.7,5.5,17.9,5.5l0.2,0
		c13.3,0,16.7-4.2,16.7-4.2S419.3,214.4,419.3,201.9z"/>
	<path d="M403,231.2L396,230c0,0-2.7,6.1-7.5,7.3c0,0-3.6,30.1,14.5,30.1V231.2z" style="fill:#E2B698;"/>
	<path d="M403,231.2l6.7-1c0,0,3,5.8,7.8,7c0,0,3.6,30.1-14.5,30.1V231.2z" style="fill:#E2B698;"/>
	<path d="M389.6,241.5c0,0,0-41.7,12.6-41.7l1.2-9.9l-11.1,2.8l-6,21.1l-1.8,27.7H389.6z"/>
	<path d="M417.7,242.3c0,0-3.2-42.5-15.5-42.5l1.2-9.9l11.1,2.8l5.9,21.2l1.8,28.4H417.7z"/>
	<path d="M427.7,319.5L403,319v26.5l0,0c0,0,6.1,41.2,8.4,48.1c0.1,24.7,3.7,59.2,3.7,59.2h15.7c0,0,1.2-50.4-1.2-60.1
		C429.5,392.6,434.1,333,427.7,319.5z" style="fill:#CCB491;"/>
	<path d="M471.2,264.5l-6.8-7.9l-15.6,21.1c0,0-9.4-37.8-21.1-38.6l0,0l-10.5,39l12.5-6.7c0,0,7.5,25.7,15.7,26
		C456.7,297.9,471.2,264.5,471.2,264.5z" style="fill:#2662A3;"/>
	<path d="M403.3,235.4c13.2,0,11.7,0.9,11.7,0.9l12.7,2.8c0,11.2-1.9,80-26,80L403.3,235.4z" style="fill:#51453C;"/>
	<path d="M425.6,311.4c0,0-3.5,1.2-22.3,1.2c-18.7,0,0,8.8,0,8.8c18.5,0,24.4-1.9,24.4-1.9
		C427.9,319.5,426.2,311.4,425.6,311.4z" style="fill:#704020;"/>
	<path d="M424.6,315.6c-0.4-2.1-2.3-3.7-4.5-3.5c-3.4,0.3-8.6,0.5-16.8,0.5c-18.7,0-22.9-1.2-22.9-1.2
		c-0.6,0-1.9,7.7-1.4,7.7c0,0-1.4,7.5,1.6,8.6c3.6,1.2,10.9-6.3,22.6-6.3c0,0,13.8-0.4,17.6-0.8
		C423.3,320.4,425.1,318.1,424.6,315.6L424.6,315.6z" style="fill:#7E4F2E;"/>
	<path d="M417.5,313.7c-4.7,0.5-12.2,0.3-12.2,0.3l-3.2,3.1l3.5,2.7c0,0,5.6,0.5,12.2-0.3L417.5,313.7z" style="fill:#87593A;"/>
	<g>
		<path d="M413.3,322.3c-0.5,0-1-0.4-1-1l-0.4-8.8c0-0.6,0.4-1,1-1c0.6,0,1,0.4,1,1l0.4,8.8
			C414.3,321.8,413.9,322.2,413.3,322.3C413.3,322.3,413.3,322.3,413.3,322.3z" style="fill:#A06E4D;"/>
	</g>
	<g>
		<path d="M417.8,320.1c-0.3,0-0.5-0.2-0.6-0.5c0-0.3,0.2-0.6,0.5-0.6l3.5-0.2l-0.2-4.7l-3.5,0.2
			c-0.3,0-0.6-0.2-0.6-0.5c0-0.3,0.2-0.6,0.5-0.6l4.1-0.2c0.3,0,0.6,0.2,0.6,0.5l0.3,5.8c0,0.3-0.2,0.6-0.5,0.6L417.8,320.1
			C417.8,320.1,417.8,320.1,417.8,320.1z" style="fill:#78909C;"/>
	</g>
	<path d="M419.8,315.7l0.1,1.6c0,0-0.6,0-0.8,0c-0.5,0-0.8-0.3-0.9-0.8c0-0.5,0.3-0.8,0.8-0.9
		C419.4,315.7,419.8,315.7,419.8,315.7z" style="fill:#704020;"/>
	<g>
		<path d="M419.1,317c-0.2,0-0.4-0.2-0.5-0.4c0-0.2,0.2-0.5,0.4-0.5l2.7-0.1c0.3,0,0.5,0.2,0.5,0.4
			c0,0.2-0.2,0.5-0.4,0.5L419.1,317C419.1,317,419.1,317,419.1,317z" style="fill:#B0BEC5;"/>
	</g>
	<path d="M403.3,235.4l14.9,1.8l11.4,2.4c0.4,11.2,0.9,21.8,0,31.8c0,4.4-1.3,30.6-4.1,40c0,0-3.4,2.2-22.3,2.2
		L403.3,235.4z" style="fill:#326EC0;"/>
	<path d="M331.8,259.4c0,0-4.5-0.8-4.6-7.3c-0.1-3.6-1.1-16,0.2-20.1c0.5-1.7,2.9-1.7,3.5-0.1l7.9,26.2" style="fill:#E2B698;"/>
	<path d="M329,260.4l9.6-6l11.9,14.9c0,0,16.4-23.8,25.2-28.5l2.8,7.8l10.3,29.4l-12.5-7.7c0,0-21.1,19.2-25.5,19.2
		C341.8,289.6,329,260.4,329,260.4z" style="fill:#2662A3;"/>
	<path d="M403.3,235.4l-15.9,2l-11.7,3.5c-1.4,6.2-0.9,22.6,0.6,29.5c0,4.4,1.9,32.5,4.1,41c0,0,6.2,2.2,22.9,2.2
		L403.3,235.4z" style="fill:#326EC0;"/>
	<polygon points="396.3,261.4 379.8,261.4 380.4,276.4 388.2,279.8 396.2,276.2 	" style="fill:#3E7ECC;"/>
	<polygon points="396.3,261.4 379.8,261.4 380,266.7 388.2,268.8 396.3,266.2 	" style="fill:#4A91D8;"/>
	<polygon points="426.3,261.4 409.8,261.4 410.4,276.4 418.2,279.8 426.2,276.2 	" style="fill:#3E7ECC;"/>
	<polygon points="426.3,261.4 409.8,261.4 410,266.7 418.2,268.8 426.3,266.2 	" style="fill:#4A91D8;"/>
	<path d="M403.3,313.6l0-78.2" style="fill:none;stroke:#2662A3;stroke-width:3;stroke-miterlimit:10;"/>
	<g>
		<path d="M384.1,339.1l-12.9-3.3l-0.8-0.2c-0.8-0.2-1.7,0.7-1.7,0.7c0.7-2.8,5.6-1,6.8-4.1l9.6,2.5L384.1,339.1z" style="fill:#8E5128;"/>
		<path d="M384.6,334.6l-9.1-2.3l1.8-6.8c0.2-0.9,1.1-1.4,2-1.2l5.9,1.5c0.9,0.2,1.4,1.1,1.2,2L384.6,334.6z" style="fill:#8E5A36;"/>
		<g>
			
				<rect x="367.9" y="348.9" transform="matrix(-0.2506 0.9681 -0.9681 -0.2506 809.5818 73.4015)" width="17" height="2.2" style="fill:#839BA5;"/>
			<path d="M374.7,325l-1.3-0.3c-0.5,0.9-1.5,1.4-2.6,1.3l-0.2,0c-1.3-0.1-2.4,0.8-2.5,2l-0.2,1.6
				c-0.1,1.2,0.6,2.2,1.7,2.5c0.1,0,0.2,0,0.3,0.1c1.1,0.1,2,0.9,2.3,2l0.1,0.3L374.7,325z M368.9,329.3l0.1-1.1
				c0.1-0.8,0.8-1.4,1.6-1.3l0.7,0.1c0.4,0,0.7,0.4,0.6,0.8l-0.3,2.6c0,0.4-0.4,0.7-0.8,0.6l-0.7-0.1
				C369.4,330.8,368.8,330.1,368.9,329.3z" style="fill:#58747F;"/>
			<path d="M384.6,329.5c-0.2-1,0.4-1.9,1.1-2.4c0.4-0.2,0.8-0.5,1.1-0.8c0.3-0.3,0.3-0.7,0-1
				c-0.2,0.6-0.9,0.9-1.3,0.9c-0.9,0-2.3,0.8-2.8,1.6C382.4,327.4,384.6,329.5,384.6,329.5z" style="fill:#58747F;"/>
			
				<rect x="380.2" y="328.8" transform="matrix(0.2506 -0.9681 0.9681 0.2506 -36.3996 616.9877)" width="0.3" height="6.4" style="fill:#A6B1B2;"/>
			<path d="M376.6,358.9l0.8-3.3l1.2,0.4c0.7,0.3,1,1.1,0.6,1.7l0,0C378.7,358.7,377.7,359.1,376.6,358.9L376.6,358.9z
				" style="fill:#B0BEC5;"/>
			
				<rect x="368" y="351.1" transform="matrix(-0.2506 0.9681 -0.9681 -0.2506 814.0331 74.4604)" width="20.4" height="2.4" style="fill:#90A4AE;"/>
			<path d="M385.7,330.9c0.1-0.4,0-0.8-0.3-1.1c-0.6-0.6-1.7-1.5-2.4-2.2c-0.4-0.4-1-0.7-1.7-0.9
				c-0.4-0.1-0.9-0.1-1.3-0.1c0.1-0.7-0.3-1.4-0.9-1.8l0.3-1l-0.5-0.1l-5.4,0.9l-1.4,12.2c-0.2,1.4,0.6,2.8,1.8,3.4l0,0
				c0.8,0.4,1.4,1.1,1.6,2l5.9,1.5c0.6,0.2,1.2-0.2,1.4-0.8L385.7,330.9z" style="fill:#78909C;"/>
			<path d="M366.2,311l-1.2,4.6c-0.3,1.3,0.4,2.5,1.7,2.8c3,0.6,7.7,2.2,6.6,6.3l2.7,0.7c1.2,0.3,2.4-0.4,2.7-1.6l0,0
				c0.6-2.3,1.8-7.2-6.5-12.4l-2.6-1.6C368.3,308.8,366.6,309.5,366.2,311z" style="fill:#757575;"/>
			<path d="M378.8,323.7c0.6-2.3,1.8-7.2-6.5-12.4l-3.5-2.1c-0.9-0.6-2.1-0.1-2.3,0.9l-1.4,5.5
				c-0.3,1.2,0.5,2.5,1.7,2.8c3,0.6,7.6,2.2,6.6,6.3l2.7,0.7C377.2,325.6,378.4,324.9,378.8,323.7L378.8,323.7z M374.3,321.7
				c-0.1-0.3-0.2-0.5-0.4-0.8c-0.7-1.2-2.8-2.3-4.6-3.1c-1.7-0.8-2.7-2.6-2.4-4.5l0.4-2.1c0.1-0.3,0.3-0.6,0.7-0.8
				c0.3-0.1,0.7-0.1,1,0.1l2.6,1.6c4.2,2.6,5.5,5.9,5.9,8.5C377.8,322.7,375.1,323.6,374.3,321.7
				C374.3,321.8,374.3,321.8,374.3,321.7z" style="fill:#616161;"/>
			<g>
				<polygon points="383.6,333.3 377.2,331.7 375.2,339.3 381.6,341 				" style="fill:#B0BEC5;"/>
				<path d="M381.9,329.4l-1.3-0.3c-1.4-0.4-2.8,0.5-3.2,1.9l6.4,1.7C384.1,331.2,383.3,329.8,381.9,329.4z" style="fill:#B0BEC5;"/>
				<path d="M380.9,334.7c0.1-0.5-0.2-1.1-0.7-1.2c-0.5-0.1-1.1,0.2-1.2,0.7l-1.5,5.7l2,0.5L380.9,334.7z" style="fill:#90A4AE;"/>
				<path d="M376.2,339.5l-1-0.3l1.7-6.6c0.5,0.3,0.8,0.9,0.6,1.5L376.2,339.5z" style="fill:#90A4AE;"/>
				<path d="M381.6,341l-1-0.3l1.4-5.4c0.2-0.6,0.7-1,1.3-1L381.6,341z" style="fill:#90A4AE;"/>
			</g>
			<circle cx="376.2" cy="327.9" r="1.1" style="fill:#B0BEC5;"/>
		</g>
		<path d="M383,340.9l-10-5.2l-2.5-0.4c-0.8-0.2-1.6,0.3-1.8,1.1c-0.7,3.6,1.4,12.9,0.3,20.6c-0.1,0.6-0.2,1.1-0.3,1.7
			c-0.1,0.3-0.1,0.5-0.2,0.8l0-0.1c-0.2,0.7,0.2,1.4,1,1.6c2.7,0.7,8.9,1.1,8.9,1.1L383,340.9z" style="fill:#704020;"/>
		<path d="M384.5,335.2l-0.7-0.2c-1.8-0.5-3.9,0.4-6.7,1c-2.4,0.5-4.4-0.9-6-0.2c-3.9,1.8,1.8,11.9-1.7,25.2
			c2.4,1.5,5.2,2.3,8,2.3c0.4,0,0.7-0.3,0.8-0.6l6.9-26.5C385.2,335.7,385,335.3,384.5,335.2z" style="fill:#7E4F2E;"/>
		<path d="M381.2,352.3l-12.3-2.7c-0.6-0.1-1-0.7-1-1.3l0,0c0.1-0.8,0.8-1.3,1.5-1.2l12.3,2.7c0.2,0,0.3,0.2,0.2,0.4
			l-0.4,1.9C381.6,352.2,381.4,352.3,381.2,352.3z" style="fill:#A06E4D;"/>
		<circle cx="372.3" cy="349" r="1.6" style="fill:#B0BEC5;"/>
	</g>
	<polygon points="395.7,231 388.2,236.9 396.9,244.8 403.3,235.4 	" style="fill:#4482CC;"/>
	<polygon points="410.1,231 417.2,236.6 409.3,244.8 402.9,235.4 	" style="fill:#4482CC;"/>
	<g>
		<path d="M418.2,237.2l-8.1-6.2c0,0-1.5,1-7,1c-5.9,0-7.4-1-7.4-1l-8.3,6.3c0,0,3.9,11.9,15.5,11.9
			C415.4,249.2,418.2,237.2,418.2,237.2z" style="fill:#FFC043;"/>
		<g>
			<path d="M416,236.8c0,0-3-5.6-5.9-5.8c0,0-1.5,1-7,1c-5.9,0-7.4-1-7.4-1c-3.1,0.6-5.9,5.8-5.9,5.8s4.3,6.4,13.2,6.4
				C412.2,243.2,416,236.8,416,236.8z" style="fill:#FFB92E;"/>
			<path d="M418.2,237.2c0,0-5.2-6-8.1-6.2c0,0-4.2,6.1-6.7,10.6c-5.8-3.3-7.6-10.6-7.6-10.6c-3.1,0.6-8.3,6.3-8.3,6.3
				s6.7,5.9,15.5,5.9C412.2,243.2,418.2,237.2,418.2,237.2z" style="fill:#FFCC5A;"/>
			<path d="M399.8,245.9c0.7-2,1.9-2.6,0.5-3.4c-1.4-0.7-5.4,0-6.1,5.1c-1.5,10.4,1.6,25.4,1.6,25.4
				S396.3,256.3,399.8,245.9z" style="fill:#FFCC5A;"/>
			<path d="M397.2,245.8c0.5-2,1.4-3.3,3.1-3.3c1.9,0,1.5,1.1,1.3,4.1c-0.7,10.4-5.8,26.4-5.8,26.4
				S394.6,257.3,397.2,245.8z" style="fill:#FFD176;"/>
			<path d="M405.4,246c-1-1.8-2.4-2.1-1.1-3.2c1.2-1,5.3-1.1,7,3.8c3.5,9.9,3.4,25.2,3.4,25.2S410.9,255.5,405.4,246z" style="fill:#FFCC5A;"/>
			<path d="M407.9,245.4c-0.8-1.9-2-2.9-3.7-2.6c-1.8,0.4-1.2,1.4-0.4,4.3c2.8,10.1,10.9,24.7,10.9,24.7
				S412.7,256.1,407.9,245.4z" style="fill:#FFD176;"/>
			<path d="M404.3,246.7h-2.8c-1.3,0-2.4-1.1-2.4-2.4v-0.7c0-1.3,1.1-2.4,2.4-2.4h2.8c1.3,0,2.4,1.1,2.4,2.4v0.7
				C406.7,245.6,405.6,246.7,404.3,246.7z" style="fill:#FFE094;"/>
		</g>
	</g>
	<path d="M419.8,206.6c0,7.8-5.8,26.1-16.7,26.1c-11.5,0-16.5-18.3-16.5-26.1s7.4-14.1,16.6-14.1
		S419.8,198.7,419.8,206.6z" style="fill:#EAC0A0;"/>
	<g id="surface1_5_">
		<path d="M427.7,189.4c-4.5,0-21.3,4.7-21.3,9.2c0,10.2,3.9,6-2.8,6s-2.8,4.8-2.8-6c0-4.5-15.3-9.2-19.8-9.2
			s-8,3.5-8,8.2c0,10.4,5.8,23.6,30.7,23.6s30.7-13.4,30.7-23.6C434.2,192.9,432.2,189.4,427.7,189.4z" style="fill:#D3BEA7;"/>
		<path d="M387.3,200c0,0,2.6-8.1,4.1-12.1c1-3.8,4.6-6.3,6.8-6.3c2.2,0,4.1,2.1,5.4,2.1s3.2-2.1,5.4-2.1
			c2.2,0,5.7,2.3,6.8,6.3c0.9,3.9,3.8,12.1,3.8,12.1l-15.6,7.2L387.3,200z" style="fill:#C9AD91;"/>
		<path d="M398.2,181.6c0.8,0,1.8,0.3,2.6,0.6c1.8,0.7,3.8,0.7,5.6,0c0.9-0.4,1.8-0.6,2.6-0.6c0.9,0,0.1,2.3-1.3,4.9
			c-1.8,3.6-7,3.5-8.7-0.2C398,183.7,397.3,181.6,398.2,181.6z" style="fill:#BC9471;"/>
		<path d="M419.3,198.3c2.4,7.8-3.1,11.8-15.7,11.8s-18.4-3.6-15.7-12c0,0,2.1,4,15.7,4S419.3,198.3,419.3,198.3z" style="fill:#7E4F2E;"/>
	</g>
</g>
<g>
	<rect x="455.5" y="187.2" width="6.1" height="203" style="fill:#6D4F47;"/>
	<g>
		<polygon points="543.3,344.4 537.6,346.4 537.6,253.3 543.3,254.2 		" style="fill:#6D4F47;"/>
		<g>
			<polygon points="532.1,295.8 467.1,300.4 467.7,293.4 467.9,290.8 531.3,288.7 531.5,290.6 			" style="fill:#60423D;"/>
			<polygon points="531.5,290.6 467.7,293.4 467.9,290.8 531.3,288.7 			" style="opacity:0.1;"/>
			<polygon points="532.1,279.9 467.1,279 467.7,272.1 467.9,269.5 531.3,272.7 531.5,274.7 			" style="fill:#60423D;"/>
			<polygon points="531.5,274.7 467.7,272.1 467.9,269.5 531.3,272.7 			" style="opacity:0.1;"/>
			<polygon points="532.1,287.8 467.1,289.7 467.9,280.2 531.3,280.7 			" style="fill:#6D4F47;"/>
			<polygon points="532.1,303.7 467.1,311.1 467.9,301.5 531.3,296.7 			" style="fill:#6D4F47;"/>
			<polygon points="531.5,282.6 467.7,282.8 467.9,280.2 531.3,280.7 			" style="opacity:0.1;"/>
			<polygon points="531.5,298.6 467.7,304.1 467.9,301.5 531.3,296.7 			" style="opacity:0.1;"/>
			<polygon points="532.1,264 467.1,257.7 467.7,250.8 467.9,248.2 531.3,256.7 531.5,258.7 			" style="fill:#60423D;"/>
			<polygon points="531.5,258.7 467.7,250.8 467.9,248.2 531.3,256.7 			" style="opacity:0.1;"/>
			<polygon points="532.1,271.9 467.1,268.3 467.9,258.9 531.3,264.7 			" style="fill:#6D4F47;"/>
			<polygon points="531.5,266.7 467.7,261.4 467.9,258.9 531.3,264.7 			" style="opacity:0.1;"/>
			<polygon points="532.1,327.6 467.1,343.2 467.7,336.1 467.9,333.5 531.3,320.6 531.5,322.5 			" style="fill:#60423D;"/>
			<polygon points="531.5,322.5 467.7,336.1 467.9,333.5 531.3,320.6 			" style="opacity:0.1;"/>
			<polygon points="532.1,311.7 467.1,321.8 467.7,314.8 467.9,312.2 531.3,304.7 531.5,306.6 			" style="fill:#60423D;"/>
			<polygon points="531.5,306.6 467.7,314.8 467.9,312.2 531.3,304.7 			" style="opacity:0.1;"/>
			<polygon points="532.1,319.6 467.1,332.5 467.9,322.8 531.3,312.6 			" style="fill:#6D4F47;"/>
			<polygon points="532.1,335.5 467.1,353.9 467.9,344.1 531.3,328.6 			" style="fill:#6D4F47;"/>
			<polygon points="531.5,314.5 467.7,325.4 467.9,322.8 531.3,312.6 			" style="opacity:0.1;"/>
			<polygon points="531.5,330.5 467.7,346.8 467.9,344.1 531.3,328.6 			" style="opacity:0.1;"/>
			<polygon points="532.1,343.5 467.1,364.6 467.7,357.4 467.9,354.8 531.3,336.6 531.5,338.5 			" style="fill:#60423D;"/>
			<polygon points="531.5,338.5 467.7,357.4 467.9,354.8 531.3,336.6 			" style="opacity:0.1;"/>
			<polygon points="532.1,351.4 467.1,375.3 467.9,365.4 531.3,344.6 			" style="fill:#6D4F47;"/>
			<polygon points="531.5,346.5 467.7,368.1 467.9,365.4 531.3,344.6 			" style="opacity:0.1;"/>
			<polygon points="532.1,256 467.1,247 467.9,237.6 531.3,248.8 			" style="fill:#6D4F47;"/>
			<polygon points="531.5,250.7 467.7,240.1 467.9,237.6 531.3,248.8 			" style="opacity:0.1;"/>
			<path d="M535.9,240.3c-7.5-1.7-16-3.6-28.2-12.9l-1.7-1.4c-12.1-10-21.9-17.8-36-22.9v-1.5c0-6.3-3.7-12.7-8.3-14.4
				v203l74.3-30.9c0.9-0.4,1.7-1.5,1.7-2.4V242.4C537.6,241.5,536.8,240.5,535.9,240.3z M529.2,353.4l-59.3,22V236.6l59.3,10.8
				V353.4z" style="fill:#82655B;"/>
		</g>
		<path d="M542.4,280.4l-6.4-0.1v-13.9l6.4,0.5c1.1,0.1,2.1,1.1,2.1,2.2v9.2C544.4,279.5,543.5,280.4,542.4,280.4z" style="fill:#755952;"/>
		<path d="M542.4,332.7l-6.4,1.8v-13.9l6.4-1.3c1.1-0.2,2.1,0.5,2.1,1.6v9.2C544.4,331.2,543.5,332.4,542.4,332.7z" style="fill:#755952;"/>
	</g>
</g>
<g>
	<rect x="324.8" y="187.2" width="6.1" height="202.2" style="fill:#6D4F47;"/>
	<g>
		<polygon points="262.4,344.4 266.8,346.4 266.8,253.3 262.4,254.2 		" style="fill:#6D4F47;"/>
		<g>
			<polygon points="270.9,295.8 320.6,300.5 320.1,293.6 320,291 271.6,288.7 271.4,290.7 			" style="fill:#60423D;"/>
			<polygon points="271.4,290.7 320.1,293.6 320,291 271.6,288.7 			" style="opacity:0.1;"/>
			<polygon points="270.9,279.9 320.6,279.3 320.1,272.4 320,269.8 271.6,272.7 271.4,274.7 			" style="fill:#60423D;"/>
			<polygon points="271.4,274.7 320.1,272.4 320,269.8 271.6,272.7 			" style="opacity:0.1;"/>
			<polygon points="270.9,287.8 320.6,289.9 320,280.4 271.6,280.7 			" style="fill:#6D4F47;"/>
			<polygon points="270.9,303.8 320.6,311.1 320,301.5 271.6,296.7 			" style="fill:#6D4F47;"/>
			<polygon points="271.4,282.7 320.1,283 320,280.4 271.6,280.7 			" style="opacity:0.1;"/>
			<polygon points="271.4,298.6 320.1,304.1 320,301.5 271.6,296.7 			" style="opacity:0.1;"/>
			<polygon points="270.9,264 320.6,258.1 320.1,251.3 320,248.7 271.6,256.8 271.4,258.7 			" style="fill:#60423D;"/>
			<polygon points="271.4,258.7 320.1,251.3 320,248.7 271.6,256.8 			" style="opacity:0.1;"/>
			<polygon points="270.9,271.9 320.6,268.7 320,259.3 271.6,264.8 			" style="fill:#6D4F47;"/>
			<polygon points="271.4,266.7 320.1,261.8 320,259.3 271.6,264.8 			" style="opacity:0.1;"/>
			<polygon points="270.9,327.6 320.6,342.9 320.1,335.9 320,333.2 271.6,320.7 271.4,322.6 			" style="fill:#60423D;"/>
			<polygon points="271.4,322.6 320.1,335.9 320,333.2 271.6,320.7 			" style="opacity:0.1;"/>
			<polygon points="270.9,311.7 320.6,321.7 320.1,314.7 320,312.1 271.6,304.7 271.4,306.6 			" style="fill:#60423D;"/>
			<polygon points="271.4,306.6 320.1,314.7 320,312.1 271.6,304.7 			" style="opacity:0.1;"/>
			<polygon points="270.9,319.7 320.6,332.3 320,322.7 271.6,312.7 			" style="fill:#6D4F47;"/>
			<polygon points="270.9,335.6 320.6,353.5 320,343.8 271.6,328.7 			" style="fill:#6D4F47;"/>
			<polygon points="271.4,314.6 320.1,325.3 320,322.7 271.6,312.7 			" style="opacity:0.1;"/>
			<polygon points="271.4,330.6 320.1,346.4 320,343.8 271.6,328.7 			" style="opacity:0.1;"/>
			<polygon points="270.9,343.5 320.6,364.1 320.1,357 320,354.4 271.6,336.7 271.4,338.5 			" style="fill:#60423D;"/>
			<polygon points="271.4,338.5 320.1,357 320,354.4 271.6,336.7 			" style="opacity:0.1;"/>
			<polygon points="270.9,351.5 320.6,374.7 320,364.9 271.6,344.6 			" style="fill:#6D4F47;"/>
			<polygon points="271.4,346.5 320.1,367.6 320,364.9 271.6,344.6 			" style="opacity:0.1;"/>
			<polygon points="270.9,256 320.6,247.5 320,238.2 271.6,248.8 			" style="fill:#6D4F47;"/>
			<polygon points="271.4,250.8 320.1,240.7 320,238.2 271.6,248.8 			" style="opacity:0.1;"/>
			<path d="M266.8,241.2V357c0,0.9,0.6,2,1.3,2.4l56.7,30V187.2c-3.5,1.5-6.4,7.8-6.4,14.1v1.5
				c-10.8,4.8-18.3,12.4-27.5,22.2l-1.3,1.4c-9.3,9.2-15.8,11-21.5,12.7C267.4,239.3,266.8,240.3,266.8,241.2z M273.1,247.4
				l45.2-10.3v137.7l-45.2-21.4V247.4z" style="fill:#82655B;"/>
		</g>
		<path d="M263.1,280.4l4.9,0v-13.9l-4.9,0.5c-0.9,0.1-1.6,1.1-1.6,2.2v9.2C261.6,279.5,262.3,280.4,263.1,280.4z" style="fill:#755952;"/>
		<path d="M263.1,332.7l4.9,1.8v-13.9l-4.9-1.4c-0.9-0.2-1.6,0.5-1.6,1.6v9.2C261.6,331.2,262.3,332.4,263.1,332.7z" style="fill:#755952;"/>
	</g>
</g>
</svg>
