<?xml version="1.0" encoding="utf-8"?>
<!-- Generator: Adobe Illustrator 19.0.0, SVG Export Plug-In . SVG Version: 6.00 Build 0)  -->
<svg version="1.1" id="Calque_1" xmlns="http://www.w3.org/2000/svg" xmlns:xlink="http://www.w3.org/1999/xlink" x="0px" y="0px"
	 viewBox="-95 261.3 419.7 271.7" style="enable-background:new -95 261.3 419.7 271.7;" xml:space="preserve">
<style type="text/css">
	.st0{opacity:0.12;}
	.st1{fill:#1D1F30;}
</style>
<g id="OBJECTS" class="st0">
	<g>
		<path class="st1" d="M-35.8,293.1c-1.8-0.7-3.7-0.9-5.6-0.7c-1.7,1.6-4.7,2-7,2.2c-2.3-2.3-5.2-4.4-8.1-5.9c-1.9-1-4.2-2-4.8-4.1
			c-1-3.3-6.7-4.7-10.1-3.9c-4.3-1.2-9.2,0.3-12.7,3.2c-1.5,1.2,0.2,4.3,1.5,5.8c1.3,1.5,3,3.1,2.6,5c-1.6,0.8-3.8,0.9-5.5,0.8
			c-1.1,0-2.1-0.3-3.1,0.1c-1,0.3-1.9,1.4-1.5,2.4c-0.7,1.2-1.5,1.8-0.7,3c0.7,0.7,1.8,1.4,1.8,2.5c0,0.9-0.7,1.6-1.5,1.9
			c-0.8,0.4-1.6,0.6-2.4,1c-2.3,1.4-2.3,4.7-2,7.4c1.5,1.8,1.7,4.9,1,7.1c-0.3,0.8-0.7,1.7-0.4,2.6c0.3,1,1.5,1.3,2.4,1.6
			c2.1,0.5,4.6,1,6.2-0.4c4.4-3.6,11.2-1.8,16.8-0.5c1.9,0.4,3.9,1.1,5.1,2.8c1.5,2.2,0.9,5.2-0.4,7.5c-1.2,2.3-3,4.4-3.8,6.9
			c-0.7,2.4-0.5,4.9-0.3,7.3c0.3,3,0.6,6.2,2.3,8.7c1.8,2.6,3,6.5,2.8,9.6c-0.1,2.5-1,5.1-0.8,7.6c0.4,4.6,4.4,8.1,8.5,10.3
			c4.3,2.3,7.9,6.3,9.4,10.9c0.7,2.3,1,4.8,1.6,7.1c1.1,4.1,3.6,7.7,6.9,10.4c2.4,1.9,6.3,2.6,9.4,3.1c1.6,0.3,3.3,0.5,4.4,1.6
			c0.5,0.5,0.9,1.1,1.5,1.6c2.5,2.5,7.2,1.5,9.7,3.9c0.7,0.6,1.1,1.5,1.7,2.2c1.6,1.9,4.1,3,6.5,2.8c-0.6,1.9,1.7,4.1,1,5.9
			c-0.6,1.5-2.2,2.1-3.4,3.2c-2,1.9-2.3,5-1.5,7.6c0.9,2.6,2.7,4.7,4.5,6.8c3.4,3.8,7.5,5.6,11.2,9.1c3.4,3.2,4.2,8.5,3.4,13.1
			c-0.8,4.7-2.8,9-4.2,13.5c-2.7,8.4-3.4,17.6-0.8,26c2.6,8.4,8.7,15.9,16.8,19.2c0.9,0.4,2-0.3,2.7-1s0.8-1.9,0.3-2.7
			c-1.5-2.7-4.1-5-6-7.4c-0.6-0.8-1.2-1.6-1.2-2.6c0.1-1.1,1-1.9,1.7-2.7c1-1.3,1.6-2.9,1.6-4.6c0-1.6-0.9-3.1-0.9-4.6
			c0.1-1.6,0.9-3.2,2.4-3.7c0.7-0.2,1.4-0.2,2.1-0.5c2.1-0.9,1.8-4.2,3.3-5.9c0.7-0.8,1.8-1.2,2.7-1.7c4.1-2,7.5-5.9,7.9-10.4
			c0.3-3.6-1-8,1.7-10.4c2.5-2.2,6.4-0.7,9.7-1.3c1.3-0.2,2.2-1.5,2.9-2.7c0.6-1.2,0.7-2.6,0.5-4c-0.3-1.7-1-3.3-0.8-4.9
			c0.2-2.3,2.1-4.2,3.5-6c1.7-2.2,2.9-4.8,3.5-7.5c0.7-3.1-1.3-6.8-4.1-8.3s-6.1-1.6-9.3-1.7c-3.2-0.1-6.6-0.3-9.2-2.2
			c-2.4-1.7-3.7-4.4-5.6-6.7c-3.2-3.8-7.8-5.9-12.3-8c-1.7-0.8-3.6-1.6-5.3-1c-0.7,0.2-1.3,0.7-2,0.8c-2,0.4-3.6-1.5-5.3-2.4
			c-3.7-2-8.9,0.9-9.3,5c-1.9,0.7-5.4,0.1-6.5-1.6c-0.8-1.2-1.1-2.9-2.4-3.5c-0.7-0.3-1.6-0.2-2.2-0.7c-1-0.8-0.2-2.4,0-3.6
			c0.3-2-1.2-3.9-3.1-4.8c-1.8-0.9-4-1-6-1c-2-0.1-4.2-0.2-6-1.1c-3.6-1.8-5-6.6-3.5-10.3c1.6-3.7,5.6-5.9,9.6-5.8
			c3.9,0.1,8,3,8,6.9c0,1,1.6,1.1,2.5,0.6s1.3-1.5,1.5-2.4c0.2-1,0.2-2,0.5-2.9c0.7-2.2,2.9-3.8,5.2-3.8c2.4,0,4.1-2.4,5.8-4
			c1.7-1.7,2.7-4.2,2-6.5c-0.4-1.2-1.2-2.5-0.8-3.7c0.3-1,1.3-1.5,2.2-1.9c2.6-1.1,5.4-1.6,8.2-1.5c2.4,0.1,3.7-1.4,4.9-3.5
			c0.9-1.5,1.3-3.4,2.7-4.4c2.1-1.5,5.1-0.2,7.7-0.4c3.8-0.3,6.8-4.6,5.7-8.2c-0.5-1.8-1.7-3.2-2.7-4.7c-1.4-2.1-2.3-4.5-2.8-6.9
			c-0.5-2.3-0.6-4.8-2.1-6.5c-2.3,0.1-5.2,0-7.2,1.1c-0.4-2.4-0.9-4.9-2.3-6.8c-1.5-1.9-4.3-3-6.4-1.8c-2,1.2-2.5,4-2.1,6.3
			c0.4,2.3,1.3,4.6,1.3,6.9c-0.1,2.4-1.7,5-4.1,4.9c-1.2,0-2.3-0.8-3.2-1.7c-1.2-1.2-2.2-2.8-3.8-3.6c-1.2-0.6-2.6-0.6-3.9-0.9
			c-4.5-1-7.6-6.1-6.3-10.6c1.2-4.4,6.5-7.2,10.9-5.8c5.3-1.9,7.4-8.6,5.3-13.8c-2.1-5.2-7.8-8.4-13.4-8.7c-1.6-0.1-3.3,0.1-4.9-0.3
			c-4.5-1.1-6.9-6.1-10.8-8.6C-27,292.6-32.9,294.2-35.8,293.1z"/>
		<path class="st1" d="M35.2,277.1c-1.7,2.6,0.2,6.2,2.7,8.1s5.7,3,7.7,5.5c3.2,3.9,2.3,9.8,0.5,14.5c-1.8,4.8-4.2,9.6-3.6,14.6
			c0.3,2.4,1.3,4.6,2.5,6.7c1.2,2,2.9,3.9,5.2,4.4c2.9,0.7,5.8-1,7.9-3c2.2-2,4.1-4.4,6.7-5.7c3.8-1.9,8.7-1.2,12-3.8
			c4.1-3.3,3.5-9.5,4.6-14.7c1.9-8.6,9.4-15,12.3-23.3c0.6-1.6,1-3.3,0.9-5.1c-0.1-5.6-4.8-10.2-10.1-12.1
			c-6.5-2.3-13.1-0.9-19.7-1.2c-3.6-0.2-7.6-1.7-11.1-0.2c-5.4,2.3-3.8,7.6-7.4,10.8C43.3,275.4,37.6,273.3,35.2,277.1z"/>
		<path class="st1" d="M181.3,310.8c-3.1-3-8.2-0.1-11.4,2.8c-3.2,2.9-6.4,5.7-9.6,8.6c-2.4,2.2-5,4.4-8.2,4.9s-7-1.5-7.1-4.7
			c2.2-2.1,6.5,1,8.5-1.2c1.8-2-0.8-4.8-3.1-6.1c-4.2-2.4-8.5-4.9-13.4-5.6c-4.8-0.7-10.3,1-12.8,5.1c-2.1,3.6-1.7,8.2-3.9,11.8
			c-1.3,2.2-3.5,3.8-5,6c-1.5,2.1-2.1,5.3-0.3,7.2c1.5,1.5,4,1.5,5.5,3c1.1,1.2,1.5,3.1,3,3.7c1.7,0.7,3.6-0.9,4-2.7
			c0.4-1.8-0.2-3.7-0.5-5.5c-0.9-5.4,1.9-12.1,7.3-12.9c1.2,0,1.7,1.8,1.1,2.9c-0.6,1.1-1.6,1.9-2.2,3c-1.1,2.1,0.2,5,2.4,5.6
			c2.4,0.6,6.3,0.1,6,2.5c-0.3,2.6-5.1,0.9-6.6,3c-0.9,1.2-0.1,3-0.1,4.5c0,3-3.3,4.9-6.3,5.2c-3,0.2-6-0.7-9-0.4
			c-3,0.3-6.2,2.4-6.1,5.4c-4.1,1.9-8.4,3.5-12.8,4.7c0.2,3.2,6.3,3.5,6.3,6.8c0,1.9-2.4,3-4.4,2.8c-1.9-0.1-3.9-0.9-5.8-0.4
			c-3.3,0.9-4.4,5.4-2.6,8.3c1.8,2.8,5.5,4,8.9,3.7c1.3-0.1,2.8-0.5,3.6-1.5s0.9-2.4,1.2-3.6c0.8-2.8,3.1-5.1,5.9-5.7
			c1.6-0.4,3.5-0.4,4.4-1.8c3.6,2,6.2,5.8,6.6,9.9c1.2,1.5,3.8-0.4,3.5-2.3s-1.9-3.2-3.2-4.6s-2.4-3.5-1.4-5.1
			c6.2,1.8,11.2,7.2,12.6,13.5c2.2-0.4,3.4-3.4,2.1-5.2c0.7-1.5,3.1-0.6,3.8,0.8c0.7,1.5,0.6,3.3,1.7,4.6c2.9,3.8,10.8-0.8,13.2,3.3
			c1.7,2.9-2.1,6.3-5.5,6.2c-3.3-0.1-6.4-2-9.7-2.3c-3.7-0.4-7.3,1.2-10.9,1.6c-3.7,0.4-8.2-1-9-4.6c-0.2-1-0.1-2-0.6-2.9
			c-0.7-1.2-2.4-1.5-3.8-1.3c-6.1,0.7-12.3,7-17.4,3.5c-3.2,6.3-11.1,8.6-15.5,14.2c-4.8,6-4.4,15.3,0.3,21.4c4.6,6.1,12.9,9,20.5,8
			c1.7-0.2,3.6-0.6,5.2,0.1c1.6,0.7,2.6,2.2,4,3.3c1.3,1.1,3.6,1.7,4.7,0.3c-1.3,3.2-0.9,6.9,0.9,9.8c2,3.1,5.7,5.5,5.6,9.2
			c0,1.9-1.1,3.6-1.7,5.4c-2.4,8.4,7.5,15.2,9.1,23.8c0.4,2.3,0.4,5.1,2.4,6.4c0.9,0.6,2,0.7,3.1,0.8c5.5,0.4,12.5-1.3,13.6-6.7
			c0.3-1.5,0.1-3.1,0.1-4.7c0.1-4.7,3-9.2,7.2-11.3c1.1-0.6,2.4-1,3.3-1.9c2-2,1.6-5.3,0.5-7.9c-1-2.6-2.5-5.2-2.2-8
			c0.6-4.5,5.4-6.8,9-9.5c5.5-4,9.2-10.3,10.2-17c-5,1.6-11.2,2.9-15-0.7c-1.3-1.3-2.1-2.9-2.9-4.6c-2.4-5-4.7-9.9-7.1-14.9
			c-0.3-0.7-0.6-1.4-0.4-2.1c0.7-1.8,3.5-0.3,4.5,1.3c3.8,5.9,7.2,12,10.2,18.4c6.1-1.1,12-3.7,17-7.4c1.6-1.2,3.2-2.6,3.7-4.5
			c0.5-1.9-0.5-4.4-2.4-4.7c-0.8-0.1-1.5,0.1-2.3,0.1c-4.6,0.5-8.6-3-11.7-6.6c2.1-2.3,5.8-1,8.7,0.3c5.1,2.3,10.4,4,15.9,4.9
			c1.4,0.2,2.8,0.4,4,1.1c0.9,0.4,1.6,1.1,2.3,1.7c6.3,5.8,11,13.4,13.4,21.7c2.4,0.5,4.1-2.4,4.3-4.9s-0.1-5.3,1.7-7
			c1.4-1.4,3.7-1.5,4.9-3.1c1.5-1.9,0.7-5.1,2.5-6.8c2.3-2.1,5.9,0.5,7.1,3.3c1.2,2.8,1.6,6.3,4.2,8c1.4-0.2,2.7-0.4,4.1-0.6
			c0,6.9,2.4,13.8,6.7,19.3c2.3-1.2,1.3-4.8-0.2-7s-2.9-5.5-0.8-7.1c2.9,0,4.2,4,7,4.7c2.8,0.7,5.3-2.6,4.8-5.5
			c-0.5-2.8-2.9-4.9-5.4-6.3c-2.3-2.5,1-6.4,4.3-7s6.9,0.4,9.9-1.1c3.6-1.8,4.8-6.5,4-10.4s-3.1-7.3-5-10.8c-1.6-3-2.4-7.7,0.7-9
			c0.8-0.4,1.8-0.3,2.7-0.4c11.9-0.5,21.8-13.1,19.4-24.8c-0.5-2.2-1.3-4.4-2.9-6c-2.8-2.9-7.6-3.6-9.8-7c-2.6-4.2,0.6-9.8,4.8-12.5
			c4.1-2.7,9.2-3.9,13.1-7c1,0,1.6-1,1.8-2.1c0.1-0.6,0-1.3,0-1.9c0-1.8,1.3-3.5,3-4s3.7,0.2,4.7,1.8c1.2,1.9,0.7,4.3-0.2,6.3
			c-0.9,2-2.1,4-2.3,6.1c-0.2,2.1,1,4.7,3.2,5c2.7,0.3,4.4-2.9,4.6-5.5c0.2-2.7-0.3-5.6,1.1-7.9c2.2-3.4,8.2-4.2,8.4-8.3
			c0.1-3.3-4-5.2-4.8-8.4c-0.3-1.3,0-2.6,0.1-4c0.5-4.9-1.7-10.1-5.6-13.1c-3.9-3.1-9.3-4.1-14.1-2.5c-1.5,0.5-3,1.3-4.6,1.7
			c-2.3,0.6-4.7,0.4-7.1,0.3c-4.3-0.3-8.5-0.6-12.8-0.9c-3.8-0.3-7.9-0.5-11.2,1.3c-4.9,2.6-7.7,9.1-13.3,9.7
			c-3.9,0.5-7.4-2.2-11.1-3.7c-5.9-2.3-13.1-1.2-18,2.8c-1.9-0.9-1.3-3.7-1.9-5.7c-0.7-2.1-2.9-3.3-5.1-3.5s-4.3,0.5-6.4,1.1
			c-4.5,1.5-9.6,3.9-10,8.6c-0.1,1.3,0.2,2.7-0.4,3.9c-0.8,1.7-2.9,2.3-4.2,3.6c-1.6,1.6-1.8,4-1.9,6.3c-0.1,2.2-0.1,4.6-1.4,6.5
			C189.7,311.5,182.9,312.4,181.3,310.8z"/>
		<path class="st1" d="M264.7,439.8c1,1.5,2.7,2.4,4.4,3.1c2,0.9,4.5,1.5,6.3,0.3c1.2-0.8,5.4-6.6,5.7-7.8c0.6-2.4-0.2-2.3-2.6-2.7
			C274.5,431.8,260.2,433.4,264.7,439.8z"/>
		<path class="st1" d="M250.6,439c5.5,10.1,16.9,16.7,28.4,16.6c0.8-0.8-0.4-2.1-1.4-2.5c-2.9-1.2-6-1.8-9-2.9c-3-1-5.9-2.6-7.7-5.2
			c-0.7-1.1-1.2-2.3-1.8-3.5c-1.7-3.4-8.6-11.9-12.9-9.8C247.3,433.9,249.2,436.5,250.6,439z"/>
		<path class="st1" d="M280.7,462.5c-1.5,1.7-2.9,3.7-5,4.2c-1.3,0.3-2.6,0-3.9,0.3c-3.8,0.9-4.6,5.9-3.8,9.7
			c0.9,3.8,2.6,7.7,1.2,11.3c-0.3,0.7-0.7,1.4-0.7,2.2c0,0.9,0.7,1.7,1.4,2.3c3.4,2.6,8.3,0.7,12.1-1.3c3.8-2,8.3-4.3,12.1-2.2
			c4,2.2,4.4,7.8,6.9,11.6c2.2,3.4,7,5.4,10.4,3.3c1.2-0.7,2-1.8,2.8-2.9c1.7-2.2,3.4-4.5,5.1-6.7c2.3-2.9,4.6-6.1,5-9.8
			c0.8-7.1-5.5-12.8-11.2-17.2c-0.3-2.3-0.6-4.6-1.8-6.6c-2.3-4-7.1-4.4-5.8,1.2c-3.7,0.1-6.7-5.4-10.9-5.9
			C289.8,455.4,283.9,458.9,280.7,462.5z"/>
	</g>
</g>
<g id="DESIGNED_BY_FREEPIK">
</g>
</svg>
