<svg fill="#000000" xmlns="http://www.w3.org/2000/svg" viewBox="0 0 50 50" width="50px" height="50px"><path d="M 12 3 C 7.0414839 3 3 7.0414839 3 12 L 3 38 C 3 42.958516 7.0414839 47 12 47 L 38 47 C 42.958516 47 47 42.958516 47 38 L 47 12 C 47 7.0414839 42.958516 3 38 3 L 12 3 z M 12 5 L 38 5 C 41.877484 5 45 8.1225161 45 12 L 45 38 C 45 41.877484 41.877484 45 38 45 L 12 45 C 8.1225161 45 5 41.877484 5 38 L 5 12 C 5 8.1225161 8.1225161 5 12 5 z M 15.722656 10 A 1.0001 1.0001 0 0 0 14.746094 10.789062 L 10.878906 28.789062 A 1.0001 1.0001 0 0 0 11.855469 30 L 16.125 30 A 1.0001 1.0001 0 0 0 17.101562 29.214844 L 18.472656 22.998047 L 20.539062 22.998047 C 21.477628 22.998047 21.660685 23.153719 21.898438 23.728516 C 22.13619 24.303313 22.203082 25.494265 22 27.134766 A 1.0001 1.0001 0 0 0 22 27.136719 C 21.91699 27.8119 21.954354 28.349285 22.021484 28.734375 C 22.023379 28.745244 22.027306 28.750984 22.029297 28.761719 A 1.0001 1.0001 0 0 0 22.320312 29.734375 L 25.689453 32.849609 L 23.089844 38.587891 A 1.0001 1.0001 0 0 0 24.519531 39.853516 L 30.099609 36.460938 L 34.386719 39.789062 A 1.0001 1.0001 0 0 0 35.982422 38.808594 L 34.900391 33.25 L 39.59375 29.779297 A 1.0001 1.0001 0 0 0 39 27.974609 L 34.136719 27.974609 L 33.320312 22.841797 A 1.0001 1.0001 0 0 0 32.34375 22 A 1.0001 1.0001 0 0 0 31.457031 22.513672 L 28.685547 27.507812 C 28.626093 26.924156 28.612791 26.040944 28.75 24.679688 C 28.899964 23.199534 28.76153 22.03757 28.574219 21.232422 C 28.509499 20.954212 28.486249 20.975351 28.416016 20.775391 C 28.725545 20.606576 28.82312 20.651706 29.193359 20.28125 C 29.994591 19.47955 30.786045 18.103595 30.939453 16.017578 C 31.106306 13.760641 30.385025 12.042451 29.019531 11.113281 C 27.654038 10.184112 25.907276 10 24 10 L 15.722656 10 z M 16.53125 12 L 24 12 C 25.750724 12 27.126072 12.245998 27.892578 12.767578 C 28.659085 13.289158 29.080459 14.043031 28.945312 15.871094 C 28.822722 17.538077 28.261565 18.384638 27.779297 18.867188 C 27.297029 19.349736 26.962891 19.427734 26.962891 19.427734 A 1.0001 1.0001 0 0 0 26.359375 20.869141 C 26.359375 20.869141 26.484057 21.079695 26.625 21.685547 C 26.765943 22.291398 26.886801 23.222716 26.759766 24.476562 A 1.0001 1.0001 0 0 0 26.759766 24.478516 C 26.593815 26.123199 26.628986 27.192102 26.748047 28 L 23.988281 28 C 23.977051 27.813549 23.950208 27.675061 23.986328 27.380859 C 24.206246 25.60436 24.242842 24.165797 23.746094 22.964844 C 23.249346 21.763891 21.991498 20.998047 20.539062 20.998047 L 17.669922 20.998047 A 1.0001 1.0001 0 0 0 16.693359 21.783203 L 15.322266 28 L 13.09375 28 L 16.53125 12 z M 19.292969 13.03125 A 1.0001 1.0001 0 0 0 18.3125 13.835938 L 17.332031 18.773438 A 1.0001 1.0001 0 0 0 18.3125 19.96875 L 22.783203 19.96875 C 23.568309 19.96875 24.434279 19.849283 25.224609 19.392578 C 26.01494 18.935874 26.67428 18.090088 26.902344 16.978516 C 27.135991 15.83739 26.830794 14.760497 26.179688 14.060547 C 25.528579 13.360597 24.614811 13.03125 23.705078 13.03125 L 19.292969 13.03125 z M 20.113281 15.03125 L 23.705078 15.03125 C 24.123345 15.03125 24.499451 15.190325 24.714844 15.421875 C 24.930236 15.653425 25.069759 15.951251 24.941406 16.578125 C 24.81229 17.203677 24.576545 17.456785 24.224609 17.660156 C 23.87194 17.863952 23.345097 17.96875 22.783203 17.96875 L 19.529297 17.96875 L 20.113281 15.03125 z M 31.800781 26.019531 L 32.296875 29.132812 A 1.0001 1.0001 0 0 0 33.283203 29.974609 L 35.96875 29.974609 L 33.205078 32.017578 A 1.0001 1.0001 0 0 0 32.816406 33.011719 L 33.509766 36.576172 L 30.783203 34.458984 A 1.0001 1.0001 0 0 0 29.650391 34.394531 L 26.246094 36.464844 L 27.808594 33.019531 A 1.0001 1.0001 0 0 0 27.576172 31.871094 L 25.554688 30 L 28.050781 30 L 29 30 A 1.0001 1.0001 0 0 0 29.875 29.486328 L 31.800781 26.019531 z"/></svg>